<?xml version="1.0" standalone="no"?>
<!DOCTYPE svg PUBLIC "-//W3C//DTD SVG 20010904//EN"
 "http://www.w3.org/TR/2001/REC-SVG-20010904/DTD/svg10.dtd">
<svg  version="1.0" xmlns="http://www.w3.org/2000/svg"
 width="300.000000pt" height="649.000000pt" viewBox="0 0 300.000000 649.000000"
 preserveAspectRatio="xMidYMid meet" >
<metadata>
Created by potrace 1.10, written by Peter Selinger 2001-2011
</metadata>
<g transform="translate(0.000000,649.000000) scale(0.100000,-0.100000)"
fill="#000000" stroke="none">
<path d="M1615 4729 c-106 -54 -226 -156 -305 -260 l-34 -46 -104 34 c-137 45
-271 53 -435 29 -135 -21 -170 -39 -196 -99 -40 -94 -58 -286 -41 -437 l5 -45
-50 -24 c-109 -52 -194 -113 -271 -193 -94 -99 -184 -238 -184 -285 0 -18 5
-33 10 -33 6 0 10 -5 10 -11 0 -45 218 -301 288 -338 26 -14 28 -35 5 -87 -38
-91 -52 -184 -49 -324 3 -126 6 -153 21 -200 3 -10 8 -27 10 -37 7 -35 23 -68
41 -84 49 -43 318 -79 451 -60 29 4 56 5 61 2 4 -3 25 -42 47 -85 45 -92 96
-161 173 -234 103 -99 239 -183 285 -176 31 4 120 54 189 106 58 44 99 85 190
190 l23 27 69 -24 c146 -52 310 -64 482 -34 132 22 153 43 189 179 19 70 29
308 15 345 -12 33 6 53 78 87 78 36 180 109 238 170 40 42 134 170 134 183 0
4 9 18 20 32 27 34 25 79 -3 122 -13 20 -41 62 -61 93 -40 63 -124 152 -198
211 l-47 38 29 80 c81 219 51 572 -54 626 -55 29 -212 52 -336 50 l-114 -2
-33 79 c-57 139 -156 264 -288 363 -57 43 -168 103 -190 103 -5 -1 -37 -14
-70 -31z m118 -20 c198 -100 375 -306 427 -497 10 -38 14 -43 33 -38 89 25
285 14 404 -22 l58 -18 22 -64 c33 -94 47 -247 33 -348 -12 -91 -42 -190 -71
-241 -11 -18 -19 -34 -17 -35 89 -58 128 -89 184 -149 84 -90 169 -226 159
-256 -13 -42 -109 -178 -168 -239 -34 -35 -87 -81 -117 -102 -59 -40 -183
-100 -208 -100 -10 0 -13 -6 -8 -22 29 -103 29 -251 0 -391 -22 -109 -32 -122
-111 -141 -203 -50 -451 -31 -582 45 -18 11 -34 19 -35 17 -68 -119 -196 -242
-330 -318 l-59 -33 -54 28 c-174 91 -332 265 -394 434 -15 44 -26 60 -36 57
-8 -3 -54 -11 -103 -17 -158 -19 -400 24 -420 75 -33 88 -45 167 -45 301 0
149 10 199 62 318 14 31 24 59 22 60 -2 2 -33 24 -69 49 -81 56 -141 120 -209
221 -80 119 -81 125 -32 205 109 179 237 295 404 362 55 22 71 34 70 47 -1 10
-8 57 -14 105 -15 103 -1 243 33 350 l21 66 56 16 c131 36 277 45 400 25 69
-11 192 -51 225 -73 19 -12 23 -9 50 33 51 80 195 211 287 263 46 27 85 48 87
48 1 0 22 -10 45 -21z"/>
<path d="M976 3663 c-2 -2 -22 -4 -45 -5 -23 0 -41 -5 -41 -10 0 -5 -4 -7 -9
-4 -5 3 -14 -1 -21 -9 -7 -8 -21 -15 -31 -15 -11 0 -19 -4 -19 -10 0 -5 -7
-10 -15 -10 -9 0 -18 -7 -21 -15 -4 -8 -12 -15 -20 -15 -8 0 -14 -4 -14 -10 0
-15 12 -12 40 10 14 11 31 20 38 20 6 0 12 5 12 10 0 6 7 10 15 10 8 0 15 5
15 11 0 5 4 8 9 5 5 -4 21 -2 36 4 14 5 49 12 76 14 45 4 78 15 53 17 -5 0
-19 2 -32 3 -12 2 -24 1 -26 -1z"/>
<path d="M1070 3651 c0 -5 15 -13 33 -16 56 -12 147 -67 189 -114 63 -73 97
-153 100 -239 2 -39 6 -72 10 -72 7 0 13 33 9 54 -1 5 -3 33 -5 63 -2 37 -9
62 -24 80 -12 15 -22 35 -22 45 0 9 -13 33 -30 51 -16 19 -30 39 -30 45 0 8
-22 23 -40 26 -3 1 -21 13 -41 29 -20 15 -43 27 -52 27 -9 0 -19 5 -22 10 -4
6 -11 8 -16 5 -5 -4 -9 -1 -9 4 0 6 -11 11 -25 11 -14 0 -25 -4 -25 -9z"/>
<path d="M710 3540 c-15 -28 -4 -39 17 -17 13 12 14 20 6 28 -8 8 -14 5 -23
-11z"/>
<path d="M678 3482 c-35 -36 -80 -162 -57 -162 8 0 13 18 12 48 -1 6 3 12 8
12 5 0 9 6 9 13 0 7 13 34 30 60 30 47 29 60 -2 29z"/>
<path d="M952 3448 c-7 -7 -12 -20 -12 -30 0 -11 -7 -18 -19 -18 -10 0 -24 -7
-31 -15 -18 -21 0 -38 40 -38 28 0 30 -3 30 -37 0 -49 -11 -58 -24 -18 -14 41
-38 42 -51 3 -6 -18 -18 -31 -30 -33 -31 -5 -40 -19 -25 -38 10 -11 24 -14 45
-11 l30 5 0 -55 c0 -49 3 -58 33 -84 57 -51 136 -33 163 38 5 13 9 57 9 97 l0
73 28 -4 c15 -2 33 1 41 6 20 13 6 41 -22 41 -17 0 -25 8 -32 32 -14 44 -31
46 -46 4 -7 -20 -20 -36 -29 -36 -8 0 -21 -4 -29 -9 -26 -16 7 -44 44 -38 l31
5 -4 -71 c-3 -57 -8 -76 -24 -89 -25 -22 -37 -22 -66 -2 -25 17 -31 81 -10
102 9 9 9 15 0 24 -7 7 -12 31 -12 53 0 40 1 42 30 42 40 0 58 17 40 38 -7 8
-21 15 -31 15 -12 0 -19 7 -19 18 0 17 -18 42 -30 42 -3 0 -11 -5 -18 -12z
m32 -23 c3 -8 3 -22 0 -30 -4 -10 1 -13 22 -12 15 1 29 -4 31 -10 7 -19 -37
-16 -59 4 -10 9 -18 27 -18 40 0 26 15 31 24 8z m-40 -41 c22 -9 10 -24 -20
-24 -25 0 -33 15 -11 23 6 3 13 6 14 6 1 1 8 -2 17 -5z m170 -48 c-3 -9 -10
-16 -15 -16 -11 0 -12 43 -2 54 10 10 24 -20 17 -38z m-29 -26 c8 -13 -20 -24
-41 -16 -20 8 -9 26 16 26 10 0 22 -5 25 -10z m80 1 c3 -5 1 -12 -5 -16 -14
-9 -52 4 -45 16 8 12 42 12 50 0z m-243 -18 c6 -22 -1 -43 -13 -43 -5 0 -9 14
-9 30 0 33 15 41 22 13z m-27 -52 c7 -12 -31 -25 -45 -16 -6 4 -8 11 -5 16 8
12 42 12 50 0z m85 -1 c0 -6 -7 -13 -15 -16 -20 -8 -48 3 -40 16 8 13 55 13
55 0z m-20 -60 c0 -15 10 -40 21 -55 18 -22 28 -26 60 -23 47 4 49 -2 9 -26
-65 -38 -130 9 -130 94 0 43 2 48 20 43 14 -4 20 -14 20 -33z"/>
<path d="M1520 3408 c0 -4 5 -8 10 -8 6 0 10 -55 10 -145 0 -90 -4 -145 -10
-145 -5 0 -10 -3 -10 -7 0 -5 22 -6 50 -5 l50 4 0 39 c0 21 -4 39 -10 39 -5 0
-10 -16 -10 -36 0 -28 -3 -35 -17 -32 -16 3 -18 19 -21 141 -2 116 0 138 13
143 26 10 16 20 -20 20 -19 0 -35 -4 -35 -8z"/>
<path d="M1893 3402 c14 -15 15 -36 10 -147 -4 -77 -10 -133 -17 -137 -6 -4 7
-8 29 -8 27 0 35 3 26 9 -10 6 -13 29 -12 81 2 82 4 90 32 90 17 0 19 -7 19
-68 0 -40 -5 -73 -12 -80 -9 -9 -4 -12 22 -12 26 0 31 3 22 12 -7 7 -12 40
-12 79 0 76 -16 102 -51 81 -18 -11 -19 -9 -19 43 0 30 5 55 10 55 6 0 10 5
10 10 0 6 -16 10 -37 10 -34 0 -35 -1 -20 -18z"/>
<path d="M2132 3399 c16 -9 17 -23 12 -137 -4 -70 -11 -133 -16 -139 -8 -10
-2 -13 26 -13 20 0 36 5 36 10 0 6 -4 10 -10 10 -6 0 -10 53 -10 140 l0 140
-27 0 c-24 -1 -25 -2 -11 -11z"/>
<path d="M2305 3376 c-11 -16 -15 -35 -11 -51 4 -16 2 -25 -6 -25 -9 0 -9 -3
0 -12 7 -7 12 -41 12 -85 0 -58 -3 -74 -17 -82 -15 -8 -10 -10 22 -11 30 0 36
3 27 12 -8 8 -12 53 -12 135 0 103 2 123 15 123 9 0 15 -9 15 -22 0 -12 3 -19
6 -15 4 3 12 0 19 -7 20 -19 23 -165 4 -177 -9 -6 6 -9 44 -9 57 0 57 0 57 30
0 35 -17 41 -22 8 -2 -13 -11 -24 -20 -26 -16 -3 -18 6 -18 87 0 75 3 91 15
91 22 0 30 -28 17 -62 -6 -16 -8 -37 -4 -46 7 -18 20 39 21 91 1 28 0 28 -45
26 -39 -3 -47 0 -57 21 -17 34 -42 36 -62 6z"/>
<path d="M1850 3358 c0 -11 -6 -14 -20 -11 -56 15 -69 -70 -20 -127 20 -23 30
-46 30 -68 0 -40 -26 -55 -47 -26 -12 17 -11 21 8 37 16 13 18 17 5 17 -23 0
-39 -36 -26 -60 15 -28 56 -26 76 5 20 31 14 60 -26 110 -30 38 -37 68 -21 94
16 25 41 4 41 -34 0 -19 5 -35 10 -35 7 0 8 19 4 53 -7 51 -14 75 -14 45z"/>
<path d="M1633 3339 c14 -8 17 -24 17 -88 0 -85 12 -108 50 -98 11 3 20 1 20
-4 0 -5 10 -9 22 -9 17 0 19 3 10 12 -7 7 -12 44 -12 94 0 73 -2 82 -20 87
-11 3 -23 1 -26 -4 -3 -5 2 -9 10 -9 22 0 23 -132 1 -150 -26 -22 -35 0 -35
91 l0 89 -27 0 c-24 -1 -25 -2 -10 -11z"/>
<path d="M2208 3318 c17 -17 16 -155 0 -161 -7 -3 3 -6 22 -6 25 -1 31 2 23
10 -8 8 -10 35 -6 81 6 72 0 87 -36 88 -12 0 -12 -3 -3 -12z"/>
<path d="M2339 3310 c-6 -19 4 -89 12 -75 2 6 2 28 -1 50 -3 22 -8 33 -11 25z"/>
<path d="M615 3278 c-7 -47 -2 -138 9 -138 5 0 6 -3 3 -7 -4 -3 0 -14 9 -24 8
-9 17 -23 18 -31 5 -32 51 -96 62 -85 3 2 -9 25 -26 50 -16 25 -30 50 -30 56
0 6 -5 11 -11 11 -5 0 -8 4 -5 9 4 5 1 22 -5 38 -6 15 -11 56 -11 91 0 69 -4
78 -13 30z"/>
<path d="M1382 3142 c-27 -90 -103 -180 -192 -228 -19 -10 -38 -23 -42 -29 -4
-5 -8 -7 -8 -3 0 4 -11 3 -25 -2 -14 -5 -48 -10 -76 -11 -77 -3 -69 -19 10
-18 54 1 76 5 95 20 13 10 31 19 40 19 9 0 16 5 16 10 0 6 6 10 13 10 8 0 24
9 37 20 13 11 29 20 35 20 11 0 26 21 29 40 1 3 13 21 28 41 16 20 33 50 39
67 6 18 14 32 19 32 4 0 8 11 8 25 0 37 -13 30 -26 -13z"/>
<path d="M717 2983 c-12 -11 -8 -23 8 -23 8 0 15 -3 15 -8 0 -7 30 -25 63 -38
9 -3 17 -10 17 -14 0 -5 16 -14 35 -20 19 -6 35 -15 35 -20 0 -4 11 -7 25 -7
14 0 25 3 25 8 0 5 -5 9 -11 9 -24 0 -137 61 -167 90 -35 33 -36 33 -45 23z"/>
<path d="M982 123 c-12 -2 -27 -14 -33 -25 -9 -17 -7 -24 10 -42 21 -21 26
-21 534 -24 544 -2 558 -1 565 45 2 13 -5 27 -20 37 -20 14 -80 16 -528 15
-278 -1 -515 -4 -528 -6z m1053 -43 c0 -13 -67 -15 -529 -18 -529 -2 -559 -1
-540 30 3 5 245 7 537 6 465 -3 532 -5 532 -18z"/>
</g>
</svg>
